<svg version="1.1" id="Layer_1" xmlns="http://www.w3.org/2000/svg" xmlns:xlink="http://www.w3.org/1999/xlink" x="0px" y="0px"
	 width="100%" viewBox="0 0 231 233" enable-background="new 0 0 231 233" xml:space="preserve">
<path fill="#E6E5E6" opacity="1.000000" stroke="none" 
	d="
M114.000000,234.000000 
	C76.000000,234.000000 38.500004,234.000000 1.000005,234.000000 
	C1.000003,156.333344 1.000003,78.666679 1.000002,1.000010 
	C76.666656,1.000000 152.333359,1.029625 227.999817,0.903782 
	C231.424194,0.898087 232.102005,1.575591 232.096252,5.000127 
	C231.970108,79.999908 231.970123,155.000000 232.096252,229.999786 
	C232.102005,233.424164 231.426010,234.112915 227.999634,234.098709 
	C190.166946,233.941696 152.333344,234.000000 114.000000,234.000000 
z"/>
<path fill="#1D1818" opacity="1.000000" stroke="none" 
	d="
M110.729141,210.188416 
	C108.802345,207.186172 107.720024,204.253708 106.933884,201.159012 
	C105.993050,197.455322 105.020859,193.750015 103.269730,190.301392 
	C99.869576,183.605194 95.112846,182.038574 88.492928,185.534271 
	C87.021927,186.311035 85.632698,187.252838 84.130959,187.959579 
	C73.671402,192.882019 62.499630,185.618790 63.415943,174.167755 
	C64.386459,162.039246 64.693726,149.927567 64.757851,137.764145 
	C64.868179,116.837646 75.701622,102.983940 96.398193,97.039886 
	C113.261818,92.196655 130.343674,92.267403 147.185745,97.139130 
	C168.176422,103.210861 179.507111,118.208229 179.912689,140.147888 
	C180.204620,155.941360 178.289139,171.730240 179.917175,187.545166 
	C180.853760,196.643188 181.369080,205.786484 181.962723,214.916641 
	C182.123734,217.393036 181.981537,219.881134 181.142990,222.310974 
	C178.568558,229.770691 170.152710,231.507889 164.907776,225.583099 
	C164.143738,224.720047 163.520096,223.718781 162.917435,222.729126 
	C159.375397,216.912506 158.338409,216.683212 152.934952,220.596680 
	C146.034073,225.594681 141.935471,224.878311 137.164734,217.828003 
	C136.419739,216.727036 135.738098,215.583069 134.989014,214.485046 
	C132.481812,210.809952 129.541611,210.160294 125.633652,212.634872 
	C119.239624,216.683624 116.189507,216.118958 110.729141,210.188416 
z"/>
<path fill="#D4171C" opacity="1.000000" stroke="none" 
	d="
M111.911301,42.954399 
	C113.858185,33.018806 118.096909,24.685228 124.635086,16.843908 
	C131.933975,38.282806 140.821198,59.045372 125.664742,80.403893 
	C123.319969,83.708138 122.281616,84.140068 120.091553,80.514465 
	C113.156174,69.033066 109.355255,56.923012 111.911301,42.954399 
z"/>
<path fill="#D1CECE" opacity="1.000000" stroke="none" 
	d="
M105.079086,139.030563 
	C105.565369,139.917480 105.977478,140.501694 106.053619,141.126831 
	C106.307716,143.212982 107.066566,145.494934 104.748131,146.967682 
	C103.845436,147.541092 102.772911,147.423645 102.037987,146.578262 
	C100.201752,144.466019 101.089867,142.200699 101.920609,140.046555 
	C102.399536,138.804688 103.144157,137.519928 105.079086,139.030563 
z"/>
<path fill="#D5D4D4" opacity="1.000000" stroke="none" 
	d="
M81.141418,141.586548 
	C81.875809,139.843857 82.072090,137.338852 84.331078,138.701996 
	C86.544891,140.037872 86.282639,142.701523 86.026604,145.006454 
	C85.856117,146.541183 84.736816,147.438950 83.260010,147.129898 
	C80.241188,146.498123 80.895462,144.093964 81.141418,141.586548 
z"/>
</svg>